# xmcd
#
# Track frame offsets: 
#        150
#        27455
#        46419
#        66477
#        82334
#        99250
#        118860
#        137155
#        153663
#        167894
#        195527
#        219956
#        240153
#        258068
#
# Disc length: 3907 seconds
#
# Revision: 0
# Processed by: cddbd v1.5.2PL0 Copyright (c) Steve Scherf et al.
# Submitted via: ExactAudioCopy v0.99pb5
#
DISCID=c30f410e
DTITLE=Danny Rhodes - Danny Rhodes [CD2]
DYEAR=2009
DGENRE=Blues
TTITLE0=Big House (Live)
TTITLE1=11-29
TTITLE2=Heedla
TTITLE3=You Are Mine
TTITLE4=Deeper
TTITLE5=Love Is Light
TTITLE6=Oh Love
TTITLE7=Heaven Is A Night
TTITLE8=Booty Walk
TTITLE9=Live Long Day (Live at Page Springs Cellars)
TTITLE10=Bordertown
TTITLE11=Temptation
TTITLE12=One Spot
TTITLE13=Cochise County (Live at Page Springs Cellars)
EXTD=
EXTT0=
EXTT1=
EXTT2=
EXTT3=
EXTT4=
EXTT5=
EXTT6=
EXTT7=
EXTT8=
EXTT9=
EXTT10=
EXTT11=
EXTT12=
EXTT13=
PLAYORDER=
